<?xml version="1.0" encoding="UTF-8" standalone="no"?>
<svg
   xmlns:dc="http://purl.org/dc/elements/1.1/"
   xmlns:cc="http://creativecommons.org/ns#"
   xmlns:rdf="http://www.w3.org/1999/02/22-rdf-syntax-ns#"
   xmlns:svg="http://www.w3.org/2000/svg"
   xmlns="http://www.w3.org/2000/svg"
   fill="#9da0a7"
   height="24"
   viewBox="0 0 24 24"
   width="24"
   version="1.1"
   id="svg850">
  <metadata
     id="metadata856">
    <rdf:RDF>
      <cc:Work
         rdf:about="">
        <dc:format>image/svg+xml</dc:format>
        <dc:type
           rdf:resource="http://purl.org/dc/dcmitype/StillImage" />
        <dc:title></dc:title>
      </cc:Work>
    </rdf:RDF>
  </metadata>
  <defs
     id="defs854" />
  <path
     d="M 5.3164062,3.15625 C 5.192554,3.1576372 5.0700966,3.2093853 4.9824219,3.296875 L 3.296875,4.9824219 c -0.1786271,0.1780226 -0.1786271,0.5036179 0,0.6816406 l 6.2050781,6.2031255 a 0.18809441,0.18809441 0 0 1 0,0.265624 L 3.296875,18.335938 c -0.1786273,0.178022 -0.1786273,0.503617 0,0.68164 l 1.6855469,1.685547 c 0.1780226,0.178627 0.5036179,0.178627 0.6816406,0 l 6.2031255,-6.205078 a 0.18809441,0.18809441 0 0 1 0.265624,0 l 6.203126,6.205078 c 0.178022,0.178627 0.503617,0.178627 0.68164,0 l 1.685547,-1.685547 c 0.178627,-0.178023 0.178627,-0.503618 0,-0.68164 l -6.205078,-6.203126 a 0.18809441,0.18809441 0 0 1 0,-0.265624 l 6.205078,-6.2031255 c 0.178627,-0.1780227 0.178627,-0.503618 0,-0.6816406 L 19.017578,3.296875 c -0.178023,-0.1786273 -0.503618,-0.1786273 -0.68164,0 l -6.203126,6.2050781 a 0.18809441,0.18809441 0 0 1 -0.265624,0 L 5.6640625,3.296875 C 5.5734108,3.2064016 5.4444666,3.154324 5.3164062,3.15625 Z"
     id="path846"
     style="stroke-width:1.19450426" />
  <path
     d="M0 0h24v24H0z"
     fill="none"
     id="path848" />
</svg>
