<?xml version="1.0" encoding="UTF-8" standalone="no"?>
<svg
   xmlns:dc="http://purl.org/dc/elements/1.1/"
   xmlns:cc="http://creativecommons.org/ns#"
   xmlns:rdf="http://www.w3.org/1999/02/22-rdf-syntax-ns#"
   xmlns:svg="http://www.w3.org/2000/svg"
   xmlns="http://www.w3.org/2000/svg"
   id="svg857"
   version="1.1"
   fill="#9da0a7"
   height="48"
   viewBox="0 0 24 24"
   width="48">
  <metadata
     id="metadata863">
    <rdf:RDF>
      <cc:Work
         rdf:about="">
        <dc:format>image/svg+xml</dc:format>
        <dc:type
           rdf:resource="http://purl.org/dc/dcmitype/StillImage" />
        <dc:title></dc:title>
      </cc:Work>
    </rdf:RDF>
  </metadata>
  <defs
     id="defs861" />
  <path
     transform="matrix(1.2481537,0,0,1.2481537,-2.9790565,-2.9775842)"
     d="m 19.992188,3.6777344 c -0.07947,0.00218 -0.160313,0.038575 -0.216797,0.095703 a 0.12788253,0.12788253 0 0 1 -0.002,0 l -2.044922,2.0449219 a 0.12788253,0.12788253 0 0 1 -0.105469,0.037109 0.12788253,0.12788253 0 0 1 -0.0039,0 0.12788253,0.12788253 0 0 1 -0.103516,-0.03125 C 16.043042,4.5065301 14.126926,3.6796875 12,3.6796875 7.407992,3.6796875 3.6894531,7.408471 3.6894531,12 3.6894532,16.591529 7.407992,20.320312 12,20.320312 c 3.875325,0 7.113687,-2.65115 8.039062,-6.238281 a 0.12788253,0.12788253 0 0 1 0,-0.0039 c 0.02401,-0.0922 0.0013,-0.198524 -0.05664,-0.273437 -0.05796,-0.07498 -0.157499,-0.125013 -0.251953,-0.125 h -2.080078 c -0.06473,-1e-5 -0.130639,0.02113 -0.183594,0.05859 -0.05272,0.03729 -0.0958,0.09564 -0.117188,0.15625 C 16.573677,16.099315 14.473854,17.679688 12,17.679688 8.8631248,17.679688 6.3203125,15.136875 6.3203125,12 6.3203125,8.8631248 8.8631248,6.3203125 12,6.3203125 c 1.396798,0 2.611582,0.568115 3.587891,1.4003906 l -0.142579,0.1621094 0.152344,0.066406 -2.824218,2.8242192 c -0.04433,0.04406 -0.0757,0.103207 -0.08789,0.164062 -0.01216,0.0607 -0.0061,0.128427 0.01758,0.185547 0.02421,0.05843 0.06617,0.10862 0.117187,0.142578 0.05088,0.03387 0.116945,0.0549 0.179688,0.05469 h 7 c 0.08203,6.6e-5 0.168606,-0.03579 0.226562,-0.09375 0.05796,-0.05796 0.09382,-0.144535 0.09375,-0.226562 V 4 c 4.35e-4,-0.082994 -0.03807,-0.1720812 -0.09766,-0.2304688 -0.05938,-0.058192 -0.146596,-0.093938 -0.230468,-0.091797 z m -4.607422,4.171875 -0.002,0.00586 0.0059,0.00391 a 0.12788253,0.12788253 0 0 1 -0.002,-0.00781 c -5.1e-4,-0.00483 3.05e-4,-9.607e-4 0,-0.00195 z"
     id="path853" />
  <path
     id="path855"
     d="M0 0h24v24H0z"
     fill="none" />
</svg>
